<svg width="1307" height="672" viewBox="0 0 1307 672" fill="none" xmlns="http://www.w3.org/2000/svg">
<g filter="url(#filter0_d_778_154)">
<path d="M252.8 109.8H332.6V397.5H411.7V468.2H332.6V569H250.7V468.2H20.4V405.9L252.8 109.8ZM254.9 232.3L118.4 405.9H254.9V232.3ZM647.209 578.8C609.875 578.8 576.975 570.167 548.509 552.9C520.275 535.633 498.109 509.5 482.009 474.5C466.142 439.5 458.209 395.4 458.209 342.2C458.209 288.767 466.142 244.55 482.009 209.55C498.109 174.55 520.275 148.533 548.509 131.5C576.975 114.233 609.875 105.6 647.209 105.6C684.075 105.6 716.625 114.233 744.859 131.5C773.325 148.533 795.492 174.55 811.359 209.55C827.459 244.55 835.509 288.767 835.509 342.2C835.509 395.4 827.459 439.5 811.359 474.5C795.492 509.5 773.325 535.633 744.859 552.9C716.625 570.167 684.075 578.8 647.209 578.8ZM647.209 503.2C679.875 503.2 705.192 489.433 723.159 461.9C741.125 434.133 750.109 394.233 750.109 342.2C750.109 290.167 741.125 250.267 723.159 222.5C705.192 194.5 679.875 180.5 647.209 180.5C614.309 180.5 588.759 194.5 570.559 222.5C552.592 250.267 543.609 290.167 543.609 342.2C543.609 394.233 552.592 434.133 570.559 461.9C588.759 489.433 614.309 503.2 647.209 503.2ZM1120.08 109.8H1199.88V397.5H1278.98V468.2H1199.88V569H1117.98V468.2H887.677V405.9L1120.08 109.8ZM1122.18 232.3L985.677 405.9H1122.18V232.3Z" fill="black" fill-opacity="0.5"/>
</g>
<defs>
<filter id="filter0_d_778_154" x="-15" y="-20" width="1325" height="720" filterUnits="userSpaceOnUse" color-interpolation-filters="sRGB">
<feFlood flood-opacity="0" result="BackgroundImageFix"/>
<feColorMatrix in="SourceAlpha" type="matrix" values="0 0 0 0 0 0 0 0 0 0 0 0 0 0 0 0 0 0 127 0" result="hardAlpha"/>
<feOffset dx="4" dy="4"/>
<feGaussianBlur stdDeviation="12"/>
<feColorMatrix type="matrix" values="0 0 0 0 0.00392157 0 0 0 0 0.0666667 0 0 0 0 0.14902 0 0 0 0.2 0"/>
<feBlend mode="normal" in2="BackgroundImageFix" result="effect1_dropShadow_778_154"/>
<feBlend mode="normal" in="SourceGraphic" in2="effect1_dropShadow_778_154" result="shape"/>
</filter>
</defs>
</svg>
